<svg width="7" height="6" viewBox="0 0 7 6" fill="none" xmlns="http://www.w3.org/2000/svg">
<path d="M3.54489 0.4337L4.07722 1.49836C4.14895 1.6456 4.3415 1.78529 4.50384 1.8155L5.46657 1.97406C6.08196 2.076 6.22542 2.52149 5.7837 2.96699L5.0324 3.71829C4.90781 3.84288 4.83608 4.08828 4.87761 4.26573L5.0928 5.19447C5.2627 5.9269 4.87006 6.21383 4.22446 5.82874L3.32214 5.29264C3.1598 5.19448 2.88797 5.19448 2.72563 5.29264L1.82331 5.82874C1.17772 6.21006 0.785076 5.9269 0.954969 5.19447L1.17017 4.26573C1.20415 4.08451 1.13241 3.83911 1.00782 3.71452L0.256521 2.96322C-0.185201 2.52149 -0.0417356 2.076 0.573654 1.97029L1.53638 1.81172C1.69872 1.78529 1.89127 1.64183 1.963 1.49459L2.49533 0.429924C2.78604 -0.143936 3.25419 -0.143936 3.54489 0.4337Z" fill="#FFBF34"/>
</svg>
